PathFileType	4	(X/Y/Z)	./resultDataOpenSim/trcMotMarkerGrf/sub10/qtm-05-06.trc
DataRate	CameraRate	NumFrames	NumMarkers	Units	OrigDataRate	OrigDataStartFrame	OrigNumFrames
250.000000	250.000000	6	24	m	250.000000	1	502
Frame#	Time	L.Toe.Tip			R.Toe.Tip			L.Ankle.Lat			R.Ankle.Lat			L.Ankle.Med			R.Ankle.Med			L.Heel			R.Heel			L.Knee.Lat			R.Knee.Lat			L.Knee.Med			R.Knee.Med			L.Thigh.Upper			R.Thigh.Upper			L.ASIS			R.ASIS			V.Sacral			L.Acromium			R.Acromium			C7			L.Elbow			R.Elbow			L.Wrist.Lat			R.Wrist.Lat
		X1	Y1	Z1	X2	Y2	Z2	X3	Y3	Z3	X4	Y4	Z4	X5	Y5	Z5	X6	Y6	Z6	X7	Y7	Z7	X8	Y8	Z8	X9	Y9	Z9	X10	Y10	Z10	X11	Y11	Z11	X12	Y12	Z12	X13	Y13	Z13	X14	Y14	Z14	X15	Y15	Z15	X16	Y16	Z16	X17	Y17	Z17	X18	Y18	Z18	X19	Y19	Z19	X20	Y20	Z20	X21	Y21	Z21	X22	Y22	Z22	X23	Y23	Z23	X24	Y24	Z24

1	0	-1.4607545	0.038645659	-0.1828938	-0.90054088	0.10491458	-0.035332075	-1.5951156	0.066169869	-0.21748354	-1.0361661	0.066962988	-0.033899343	-1.593119	0.08790301	-0.13293425	-1.0136875	0.11001842	-0.10737614	-1.6659908	0.042760251	-0.18762687	-1.0608076	0.03022849	-0.098542564	-1.4704227	0.43365467	-0.24926264	-1.1594067	0.44697896	0.018342764	-1.4719908	0.41084205	-0.12798653	-1.1276471	0.46443912	-0.10630619	-1.3769488	0.81983176	-0.30668295	-1.3191799	0.82938348	0.073351964	-1.2998412	0.91970521	-0.25006449	-1.2586432	0.92562822	-0.0084110823	-1.4740124	0.93697402	-0.08938343	-1.3088092	1.3815709	-0.28862158	-1.3173679	1.3907051	0.036196901	-1.3909004	1.4239066	-0.13333891	-1.408994	1.0418163	-0.34842176	-1.4852725	1.0830796	0.097179059	-1.2032792	0.89670262	-0.35058584	-1.3780919	0.86906332	0.14909586
2	0.004	-1.4606657	0.038603553	-0.18293713	-0.88850318	0.10835495	-0.035959475	-1.5948808	0.066417575	-0.21740398	-1.0237423	0.067816265	-0.032971465	-1.592289	0.088136384	-0.1326311	-1.0025714	0.11103355	-0.10687962	-1.6658745	0.043383639	-0.18745976	-1.0481606	0.0304109	-0.097251392	-1.4673927	0.43298725	-0.24921204	-1.1531725	0.44578136	0.018826238	-1.4686712	0.41032061	-0.12786902	-1.1234314	0.46246408	-0.10674592	-1.3727312	0.81886611	-0.30668076	-1.3140057	0.82796718	0.073301899	-1.2953086	0.91884089	-0.25002784	-1.2536104	0.92462985	-0.0085070605	-1.4692737	0.93542281	-0.088841787	-1.3039565	1.380289	-0.28847099	-1.3128554	1.3893138	0.036365222	-1.3861586	1.4226519	-0.13329268	-1.4027679	1.0402032	-0.34872566	-1.4814418	1.0823707	0.09700596	-1.1957551	0.89681612	-0.34978746	-1.3760315	0.86757425	0.14976353
3	0.008	-1.4605798	0.038567432	-0.18297451	-0.87678313	0.1116296	-0.036656277	-1.5946353	0.066677389	-0.21731736	-1.0115383	0.068682537	-0.031994971	-1.5917848	0.088429488	-0.13250714	-0.99179477	0.11199599	-0.10640801	-1.6657577	0.044046949	-0.18728884	-1.0358656	0.030569293	-0.095834329	-1.4643186	0.43234258	-0.2491463	-1.1468898	0.4446369	0.019327207	-1.4653924	0.40977449	-0.12773437	-1.1192423	0.46055564	-0.10711647	-1.3685008	0.81790182	-0.30665358	-1.308715	0.82652895	0.073277511	-1.290846	0.91794122	-0.25002959	-1.2484848	0.9236117	-0.008591003	-1.4645151	0.93386788	-0.088303956	-1.2990433	1.3789925	-0.2882983	-1.3083551	1.3879223	0.03655394	-1.3814031	1.4214079	-0.13322514	-1.396505	1.038612	-0.34891491	-1.4778515	1.0819286	0.097131765	-1.188236	0.89692188	-0.3489822	-1.3736973	0.86613236	0.15041382
4	0.012	-1.4604981	0.038537266	-0.18300592	-0.86555928	0.11460133	-0.037471446	-1.5943781	0.066962071	-0.21722285	-0.99973359	0.06956302	-0.030980729	-1.5915106	0.088780031	-0.13251846	-0.9815416	0.11285734	-0.10597578	-1.6656371	0.044776279	-0.18711265	-1.0241304	0.030723554	-0.094293058	-1.4611728	0.43170925	-0.24906106	-1.1406973	0.44355549	0.019802661	-1.4620732	0.40918632	-0.1276046	-1.1150621	0.45876592	-0.10736727	-1.364236	0.81692479	-0.30661251	-1.30326	0.82507276	0.073288962	-1.2864489	0.9169965	-0.25008553	-1.2432283	0.92257484	-0.00867016	-1.459694	0.93230155	-0.087772274	-1.2940501	1.3776832	-0.28809357	-1.3037985	1.3865322	0.036760559	-1.3766134	1.4201787	-0.13311888	-1.3901465	1.037032	-0.34895035	-1.4743894	1.0816427	0.097460943	-1.1807205	0.89702593	-0.34816454	-1.3710547	0.86473374	0.15104007
5	0.016	-1.4604199	0.038509836	-0.18303551	-0.85485334	0.11720446	-0.038455511	-1.5941175	0.067281912	-0.2171304	-0.98843854	0.07043756	-0.029966073	-1.5911923	0.08915841	-0.13251871	-0.97183095	0.11359023	-0.10557882	-1.6655081	0.045578337	-0.18692932	-1.0130376	0.030914698	-0.092645895	-1.4579299	0.43106763	-0.2489683	-1.1346828	0.44254419	0.020225435	-1.4585912	0.40855277	-0.12751521	-1.1108511	0.45712562	-0.10748542	-1.3599217	0.81591805	-0.30657957	-1.2976543	0.8236168	0.073320078	-1.28207	0.91601636	-0.25019408	-1.2378831	0.921523	-0.0087722952	-1.4547929	0.93072383	-0.087253799	-1.2890186	1.3763807	-0.28786851	-1.2990991	1.3851514	0.036965907	-1.3717819	1.4189628	-0.13296477	-1.383681	1.0354336	-0.34890344	-1.4706983	1.0811521	0.097621811	-1.1732194	0.89713155	-0.34732673	-1.368241	0.86334673	0.15164141
6	0.02	-1.4603467	0.038483476	-0.18306642	-0.84457739	0.11944482	-0.039628533	-1.5938604	0.06764323	-0.21704948	-0.97767251	0.071265756	-0.028976017	-1.5906549	0.089551727	-0.13240627	-0.96259004	0.11419081	-0.10519445	-1.6653692	0.046447694	-0.18672972	-1.0025906	0.031164588	-0.090761198	-1.4545646	0.43042015	-0.24888463	-1.1287318	0.44163348	0.020627924	-1.4549293	0.40788457	-0.12746835	-1.1065684	0.45563509	-0.10748944	-1.3555509	0.81487298	-0.30654565	-1.2919079	0.82217378	0.0733467	-1.2776577	0.91501032	-0.2503499	-1.2325051	0.92044404	-0.0089230821	-1.4498209	0.92914585	-0.086744764	-1.2840043	1.3751033	-0.28763966	-1.294234	1.3837821	0.037163675	-1.3669181	1.4177562	-0.13277668	-1.3771648	1.0338095	-0.34888279	-1.4665757	1.0802725	0.097411913	-1.1657387	0.89722789	-0.34646059	-1.365367	0.86195076	0.15221867
